# xmcd
#
# Track frame offsets: 
#        150
#        20842
#        40805
#        67302
#        82342
#        101782
#        112642
#        132220
#        161527
#        173137
#        183547
#        197980
#        215992
#        230282
#        244615
#        262657
#        286192
#
# Disc length: 4058 seconds
#
# Revision: 3
# Processed by: cddbd v1.5.2PL0 Copyright (c) Steve Scherf et al.
# Submitted via: ExactAudioCopy v0.95b4
#
DISCID=f70fd811
DTITLE=Robillard, Duke - Rockin' Blues
DYEAR=1988
DGENRE=Blues
TTITLE0=If This Is Love
TTITLE1=Too Hot To Handle
TTITLE2=Rockin' Blues
TTITLE3=Tore Up
TTITLE4=Let Me Love You
TTITLE5=Baby Please Come Home
TTITLE6=She's Sweet
TTITLE7=Duke's Mood
TTITLE8=One More Time
TTITLE9=Someone
TTITLE10=She Made My Mind
TTITLE11=Anything It Takes
TTITLE12=My Plea
TTITLE13=It's My Own Business
TTITLE14=Give Me All The Love You Got
TTITLE15=Just Kiss Me
TTITLE16=Give Me Your Attention
EXTD=YEAR: 1988
EXTT0=
EXTT1=
EXTT2=
EXTT3=
EXTT4=
EXTT5=
EXTT6=
EXTT7=
EXTT8=
EXTT9=
EXTT10=
EXTT11=
EXTT12=
EXTT13=
EXTT14=
EXTT15=
EXTT16=
PLAYORDER=
